<mxfile host="app.diagrams.net" modified="2020-08-21T04:46:40.104Z" agent="5.0 (Windows NT 10.0; Win64; x64) AppleWebKit/537.36 (KHTML, like Gecko) Chrome/84.0.4147.125 Safari/537.36" etag="4Q1zPpXGrqGX2vkt-Jsm" version="13.6.3" type="github">
  <diagram name="Page-1" id="74e2e168-ea6b-b213-b513-2b3c1d86103e">
    <mxGraphModel dx="1182" dy="746" grid="1" gridSize="10" guides="1" tooltips="1" connect="1" arrows="1" fold="1" page="1" pageScale="1" pageWidth="1100" pageHeight="850" background="#ffffff" math="0" shadow="0">
      <root>
        <mxCell id="0" />
        <mxCell id="1" parent="0" />
        <mxCell id="qoqGy2skYHOgpOvvJdxF-15" style="edgeStyle=orthogonalEdgeStyle;rounded=0;orthogonalLoop=1;jettySize=auto;html=1;exitX=1;exitY=0.5;exitDx=0;exitDy=0;exitPerimeter=0;" edge="1" parent="1" source="qoqGy2skYHOgpOvvJdxF-2" target="qoqGy2skYHOgpOvvJdxF-4">
          <mxGeometry relative="1" as="geometry" />
        </mxCell>
        <mxCell id="qoqGy2skYHOgpOvvJdxF-2" value="Inicio Processo" style="strokeWidth=2;html=1;shape=mxgraph.flowchart.start_1;whiteSpace=wrap;" vertex="1" parent="1">
          <mxGeometry x="60" y="50" width="100" height="60" as="geometry" />
        </mxCell>
        <mxCell id="qoqGy2skYHOgpOvvJdxF-3" value="Fim Processo" style="strokeWidth=2;html=1;shape=mxgraph.flowchart.terminator;whiteSpace=wrap;" vertex="1" parent="1">
          <mxGeometry x="120" y="570" width="100" height="60" as="geometry" />
        </mxCell>
        <mxCell id="qoqGy2skYHOgpOvvJdxF-16" style="edgeStyle=orthogonalEdgeStyle;rounded=0;orthogonalLoop=1;jettySize=auto;html=1;exitX=1;exitY=0.5;exitDx=0;exitDy=0;" edge="1" parent="1" source="qoqGy2skYHOgpOvvJdxF-4" target="qoqGy2skYHOgpOvvJdxF-5">
          <mxGeometry relative="1" as="geometry" />
        </mxCell>
        <mxCell id="qoqGy2skYHOgpOvvJdxF-4" value="Swagger2&lt;br&gt;Insere Valor Produto" style="html=1;strokeWidth=2;shape=manualInput;whiteSpace=wrap;rounded=1;size=26;arcSize=11;" vertex="1" parent="1">
          <mxGeometry x="210" y="40" width="100" height="80" as="geometry" />
        </mxCell>
        <mxCell id="qoqGy2skYHOgpOvvJdxF-14" style="edgeStyle=orthogonalEdgeStyle;rounded=0;orthogonalLoop=1;jettySize=auto;html=1;exitX=0.5;exitY=1;exitDx=0;exitDy=0;" edge="1" parent="1" source="qoqGy2skYHOgpOvvJdxF-5" target="qoqGy2skYHOgpOvvJdxF-8">
          <mxGeometry relative="1" as="geometry" />
        </mxCell>
        <mxCell id="qoqGy2skYHOgpOvvJdxF-5" value="ProdutosController&lt;br&gt;/produtos/valor/{BigDecimal}" style="rounded=1;whiteSpace=wrap;html=1;absoluteArcSize=1;arcSize=14;strokeWidth=2;" vertex="1" parent="1">
          <mxGeometry x="380" y="30" width="240" height="100" as="geometry" />
        </mxCell>
        <mxCell id="qoqGy2skYHOgpOvvJdxF-13" style="edgeStyle=orthogonalEdgeStyle;orthogonalLoop=1;jettySize=auto;html=1;exitX=0;exitY=0.5;exitDx=0;exitDy=0;exitPerimeter=0;entryX=1;entryY=0.5;entryDx=0;entryDy=0;metaEdit=1;fillColor=#f8cecc;curved=1;strokeColor=#CC3535;" edge="1" parent="1" source="qoqGy2skYHOgpOvvJdxF-8" target="qoqGy2skYHOgpOvvJdxF-10">
          <mxGeometry relative="1" as="geometry" />
        </mxCell>
        <mxCell id="qoqGy2skYHOgpOvvJdxF-18" style="edgeStyle=orthogonalEdgeStyle;rounded=0;orthogonalLoop=1;jettySize=auto;html=1;exitX=0.5;exitY=1;exitDx=0;exitDy=0;exitPerimeter=0;entryX=0.5;entryY=0;entryDx=0;entryDy=0;strokeColor=#006633;" edge="1" parent="1" source="qoqGy2skYHOgpOvvJdxF-8" target="qoqGy2skYHOgpOvvJdxF-17">
          <mxGeometry relative="1" as="geometry" />
        </mxCell>
        <mxCell id="qoqGy2skYHOgpOvvJdxF-8" value="Entrada Válida?" style="strokeWidth=2;html=1;shape=mxgraph.flowchart.decision;whiteSpace=wrap;" vertex="1" parent="1">
          <mxGeometry x="450" y="170" width="100" height="100" as="geometry" />
        </mxCell>
        <mxCell id="qoqGy2skYHOgpOvvJdxF-9" value="Fim Processo" style="strokeWidth=2;html=1;shape=mxgraph.flowchart.terminator;whiteSpace=wrap;" vertex="1" parent="1">
          <mxGeometry x="90" y="430" width="100" height="60" as="geometry" />
        </mxCell>
        <mxCell id="qoqGy2skYHOgpOvvJdxF-11" style="edgeStyle=orthogonalEdgeStyle;rounded=0;orthogonalLoop=1;jettySize=auto;html=1;exitX=0.5;exitY=1;exitDx=0;exitDy=0;entryX=0.5;entryY=0;entryDx=0;entryDy=0;entryPerimeter=0;" edge="1" parent="1" source="qoqGy2skYHOgpOvvJdxF-10" target="qoqGy2skYHOgpOvvJdxF-9">
          <mxGeometry relative="1" as="geometry" />
        </mxCell>
        <mxCell id="qoqGy2skYHOgpOvvJdxF-10" value="Lança exception BAD_REQUEST&lt;br&gt;NumberFormatException" style="rounded=1;whiteSpace=wrap;html=1;absoluteArcSize=1;arcSize=14;strokeWidth=2;" vertex="1" parent="1">
          <mxGeometry x="60" y="270" width="160" height="100" as="geometry" />
        </mxCell>
        <mxCell id="qoqGy2skYHOgpOvvJdxF-20" style="edgeStyle=orthogonalEdgeStyle;curved=1;orthogonalLoop=1;jettySize=auto;html=1;exitX=0.5;exitY=1;exitDx=0;exitDy=0;strokeColor=#006633;" edge="1" parent="1" source="qoqGy2skYHOgpOvvJdxF-17" target="qoqGy2skYHOgpOvvJdxF-19">
          <mxGeometry relative="1" as="geometry" />
        </mxCell>
        <mxCell id="qoqGy2skYHOgpOvvJdxF-17" value="ProdutoService.class&lt;br&gt;Metodo: obterValor()" style="rounded=1;whiteSpace=wrap;html=1;absoluteArcSize=1;arcSize=14;strokeWidth=2;" vertex="1" parent="1">
          <mxGeometry x="415" y="300" width="170" height="100" as="geometry" />
        </mxCell>
        <mxCell id="qoqGy2skYHOgpOvvJdxF-19" value="TipoCalculoEnum&lt;br&gt;Tem Desconto?" style="strokeWidth=2;html=1;shape=mxgraph.flowchart.decision;whiteSpace=wrap;" vertex="1" parent="1">
          <mxGeometry x="410" y="430" width="180" height="110" as="geometry" />
        </mxCell>
        <mxCell id="qoqGy2skYHOgpOvvJdxF-21" value="CalculaValorInterface&lt;br&gt;Metodo:&amp;nbsp;desconto()" style="rounded=1;whiteSpace=wrap;html=1;absoluteArcSize=1;arcSize=14;strokeWidth=2;" vertex="1" parent="1">
          <mxGeometry x="415" y="570" width="170" height="100" as="geometry" />
        </mxCell>
      </root>
    </mxGraphModel>
  </diagram>
</mxfile>
